<?xml version="1.0" encoding="utf-8"?>
<!-- Generator: Adobe Illustrator 25.0.0, SVG Export Plug-In . SVG Version: 6.00 Build 0)  -->
<svg version="1.1" id="Capa_1" xmlns="http://www.w3.org/2000/svg" xmlns:xlink="http://www.w3.org/1999/xlink" x="0px" y="0px"
	 viewBox="0 0 132 132" style="enable-background:new 0 0 132 132;" xml:space="preserve">
<style type="text/css">
	.st0{fill:#FFFFFF;}
	.st1{filter:url(#Adobe_OpacityMaskFilter);}
	.st2{fill-rule:evenodd;clip-rule:evenodd;fill:#FFFFFF;}
	.st3{mask:url(#mask-2_1_);fill-rule:evenodd;clip-rule:evenodd;fill:#FFFFFF;}
	.st4{filter:url(#Adobe_OpacityMaskFilter_1_);}
	.st5{mask:url(#mask-4_1_);fill-rule:evenodd;clip-rule:evenodd;fill:#FFFFFF;}
</style>
<desc>Created with Sketch.</desc>
<g id="Colors-_x26_-Symbols">
	<g id="Pictogramas" transform="translate(-1241.000000, -324.000000)">
		<g id="Dificultad" transform="translate(1241.000000, 324.000000)">
			<path id="Oval" class="st0" d="M66,132c36.5,0,66-29.5,66-66S102.5,0,66,0S0,29.5,0,66S29.5,132,66,132z M66,127
				C32.3,127,5,99.7,5,66S32.3,5,66,5s61,27.3,61,61S99.7,127,66,127z"/>
			<g id="Group-15" transform="translate(36.000000, 27.000000)">
				<g id="Group-3" transform="translate(0.000000, 15.000000)">
					<g id="Clip-2">
					</g>
					<defs>
						<filter id="Adobe_OpacityMaskFilter" filterUnits="userSpaceOnUse" x="0.2" y="0.1" width="60.8" height="59.6">
							<feColorMatrix  type="matrix" values="1 0 0 0 0  0 1 0 0 0  0 0 1 0 0  0 0 0 1 0"/>
						</filter>
					</defs>
					<mask maskUnits="userSpaceOnUse" x="0.2" y="0.1" width="60.8" height="59.6" id="mask-2_1_">
						<g class="st1">
							<polygon id="path-1_1_" class="st2" points="0.2,0.1 60.9,0.1 60.9,59.7 0.2,59.7 							"/>
						</g>
					</mask>
					<path id="Fill-1" class="st3" d="M37.4,16.1c-1.3-1.4-2.5-2.8-3.8-4.3c-0.4-0.4-0.6-0.6-1,0.1c-3.8,6.3-7.5,12.6-11.4,18.7
						c-3.6,5.7-6.4,11.9-9.4,17.9c-0.3,0.5-1.5,3-1.8,3.6c-0.8,1.7-1.7,3.5-2.5,5.2c-0.9,1.9-2.9,2.7-4.8,2c-2-0.7-3-2.6-2.4-4.6
						c1.3-4.3,2.8-8.6,4.2-12.9c2-6.1,3.9-12.3,6-18.3c2.3-6.5,4.7-13,7.2-19.5c1.1-3,4.6-4.6,7.8-3.9c2.2,0.5,4.5,0.9,6.7,1.6
						c2.3,0.7,4.1,2.3,5.6,4.2c1.3,1.7,2.6,3.4,3.9,5.2c1,1.3,2.2,1.8,3.8,1.8c4.1-0.2,8.3-0.3,12.4-0.5c1.7-0.1,3,1.1,3.1,2.6
						c0.1,1.6-1,2.9-2.8,3c-3.7,0.2-7.4,0.4-11.1,0.6c-1,0.1-2,0.2-2.9,0.3C41.5,19.1,39.2,18.1,37.4,16.1z"/>
				</g>
				<path id="Fill-4" class="st2" d="M26.5,45c2.1,1.3,4.1,2.6,6.1,3.8c3.5,2.2,5.4,5.3,5.3,9.3c0,1.5-0.6,2.9-0.9,4.4
					c-0.2,0.8-0.2,1.7-0.4,2.5c-0.3,1.5-0.6,3-0.9,4.4c-0.4,1.9-0.8,3.7-1.2,5.6C34.1,77,32.1,78.3,30,78c-2.1-0.3-3.5-2.1-3.2-4.1
					c0.2-1.1,0.6-2.2,0.8-3.2c0.3-1.7,0.5-3.3,0.8-5c0.3-1.8,0.7-3.6,1.1-5.4c0.5-2.5,0-3.6-2.3-4.9c-1.6-0.9-3.2-1.8-4.8-2.7
					c-0.4-0.2-0.7-0.5-0.4-1C23.6,49.4,25.1,47.2,26.5,45"/>
				<path id="Fill-6" class="st2" d="M10.5,14c0.7,0.3,2.1,0.8,3.3,1.3c0.1,0.1,0.2,0.6,0.1,0.8c-1.5,4.6-3.1,9.1-4.7,13.7
					c-1.1,3.1-2.1,6.1-3.2,9.2c-0.4,1.2-0.4,1.2-1.5,0.7c-0.7-0.3-1.5-0.6-2.2-1c-2-1.1-2.9-3.5-2.2-5.8c1.8-5.3,3.6-10.7,5.5-16
					C6.5,15,8,14,10.5,14"/>
				<g id="Group-10" transform="translate(51.000000, 36.000000)">
					<g id="Clip-9">
					</g>
					<defs>
						<filter id="Adobe_OpacityMaskFilter_1_" filterUnits="userSpaceOnUse" x="0" y="0.3" width="3.9" height="41.6">
							<feColorMatrix  type="matrix" values="1 0 0 0 0  0 1 0 0 0  0 0 1 0 0  0 0 0 1 0"/>
						</filter>
					</defs>
					<mask maskUnits="userSpaceOnUse" x="0" y="0.3" width="3.9" height="41.6" id="mask-4_1_">
						<g class="st4">
							<polygon id="path-3_1_" class="st2" points="0,0.3 4,0.3 4,41.9 0,41.9 							"/>
						</g>
					</mask>
					<path id="Fill-8" class="st5" d="M0,20.6c0-6.3,0-12.6,0-19c0-0.9,0.2-1.3,1-1.2c0.7,0,1.4,0,2.2-0.1C3.9,0.2,4,0.6,4,1.3
						c0,5,0,9.9,0,14.9c0,2.4-0.1,4.8-0.1,7.2c0,2.9,0.1,5.8,0.1,8.7c0,2.4,0,4.9,0,7.3c0,1.8-0.5,2.5-1.9,2.5c-1.5,0-2-0.7-2-2.5
						C0,33.1,0,26.9,0,20.6"/>
				</g>
				<path id="Fill-11" class="st2" d="M42,7c0,3.9-3.1,7-7,7c-3.9,0-7-3.1-7-7c0-3.8,3.2-7,7-7C38.9,0,42,3.1,42,7"/>
				<path id="Fill-13" class="st2" d="M51,21.6c0-0.8,0-1.7,0-2.5c0.1-1.4,0.7-2.1,2.1-2.1c1.3,0,1.9,0.7,1.9,2.1c0,1.6,0,3.2,0,4.8
					c0,0.7-0.2,1-0.7,1c-0.8,0-1.7,0-2.5,0.1c-0.6,0-0.8-0.2-0.7-0.9C51,23.2,51,22.4,51,21.6L51,21.6z"/>
			</g>
		</g>
	</g>
</g>
</svg>
