<?xml version="1.0" encoding="utf-8"?>
<!-- Generator: Adobe Illustrator 25.0.0, SVG Export Plug-In . SVG Version: 6.00 Build 0)  -->
<svg version="1.1" id="Capa_1" xmlns="http://www.w3.org/2000/svg" xmlns:xlink="http://www.w3.org/1999/xlink" x="0px" y="0px"
	 viewBox="0 0 132 132" style="enable-background:new 0 0 132 132;" xml:space="preserve">
<style type="text/css">
	.st0{fill:#FFFFFF;}
</style>
<desc>Created with Sketch.</desc>
<g id="Colors-_x26_-Symbols">
	<g id="Pictogramas" transform="translate(-1082.000000, -518.000000)">
		<g id="Group" transform="translate(1082.000000, 518.000000)">
			<g id="Bus">
				<path id="Oval" class="st0" d="M66,132c36.5,0,66-29.5,66-66S102.5,0,66,0S0,29.5,0,66S29.5,132,66,132z M66,127
					C32.3,127,5,99.7,5,66S32.3,5,66,5s61,27.3,61,61S99.7,127,66,127z"/>
			</g>
			<g id="distance_Distance" transform="translate(34.000000, 20.000000)">
				<path id="Shape" class="st0" d="M31.8,0c7.7,0,14.7,2.2,20.8,6.8c6.3,4.7,10.6,11.5,12,19.1c1,5.3,0.3,10.4-1.4,15.5
					c-3.3,9.4-7.3,18.5-12.1,27.2c-4.5,8.5-9.3,16.7-14,25.1c-0.7,1.2-1.5,2.3-2.4,3.3c-0.5,0.7-1.3,1-2.2,1c-0.9,0-1.7-0.4-2.2-1.1
					c-1.1-1.3-2.1-2.6-2.9-4.1C20,80.4,13,67.7,7.1,54.5c-2.5-5.5-4.8-11.1-6.3-17c-2.2-9.2,0.1-17.6,5.9-25c5.5-7.1,13-11,22-12.2
					C29.7,0.1,30.8,0.1,31.8,0z M30.6,18.8c-4.8,0.5-9.3,6.4-11.1,8.8c-0.9,1.2-1.3,2.5-0.5,3.8c0.7,1.1-0.7,5.2,0.1,6.3
					c2.7,3.4,8.2,3.7,11.6,6.9c0.4,0.4,0.8,0.7,1.3,1.1c0.2-0.1,0.3-0.2,0.4-0.3c2.3-2.3,7.4-1.7,9.6-4c2-2,1-6.9,2.4-9
					c0.7-1.1,1.1-2.3,0.8-3.5c-0.6-1.8-0.2-5.3-3.2-6.3S34.1,18.5,30.6,18.8z"/>
				<path id="Shape_1_" class="st0" d="M52,29.7C52.4,36.5,45.6,46,33.2,46c-5.1,0.1-9.9-1.6-13.6-4.7S14,34,14,29.6
					c0-8.8,8.3-16.4,17.8-16.6C44.2,12.7,52.5,21.3,52,29.7z M33,39.4c1.3,0,2.2-0.2,2.7-0.5c2.1-1,3.5-3.2,3.7-5.6
					c0.1-2.1-0.7-4.1-2.2-5.5c-1.5-1.4-3.5-1.9-5.5-1.5c-3.4,0.7-5.6,4.4-4.9,8C27.4,37.4,29.8,39.4,33,39.4z"/>
			</g>
		</g>
	</g>
</g>
</svg>
