<?xml version="1.0" encoding="UTF-8"?>
<svg width="132px" height="132px" viewBox="0 0 132 132" version="1.1" xmlns="http://www.w3.org/2000/svg" xmlns:xlink="http://www.w3.org/1999/xlink">
    <!-- Generator: Sketch 61 (89581) - https://sketch.com -->
    <title>Dificultad</title>
    <desc>Created with Sketch.</desc>
    <defs>
        <polygon id="path-1" points="0.152915606 0.0982300824 60.9409677 0.0982300824 60.9409677 59.6503813 0.152915606 59.6503813"></polygon>
        <polygon id="path-3" points="0.0296068516 0.291477495 3.97847253 0.291477495 3.97847253 41.8974359 0.0296068516 41.8974359"></polygon>
    </defs>
    <g id="Colors-&amp;-Symbols" stroke="none" stroke-width="1" fill="none" fill-rule="evenodd">
        <g id="Pictogramas" transform="translate(-1241.000000, -324.000000)">
            <g id="Dificultad" transform="translate(1241.000000, 324.000000)">
                <path d="M66,132 C102.450793,132 132,102.450793 132,66 C132,29.5492065 102.450793,0 66,0 C29.5492065,0 0,29.5492065 0,66 C0,102.450793 29.5492065,132 66,132 Z M66,127 C32.3106303,127 5,99.6893697 5,66 C5,32.3106303 32.3106303,5 66,5 C99.6893697,5 127,32.3106303 127,66 C127,99.6893697 99.6893697,127 66,127 Z" id="Oval" fill="#000000" fill-rule="nonzero"></path>
                <g id="Group-15" transform="translate(36.000000, 27.000000)">
                    <g id="Group-3" transform="translate(0.000000, 15.000000)">
                        <mask id="mask-2" fill="white">
                            <use xlink:href="#path-1"></use>
                        </mask>
                        <g id="Clip-2"></g>
                        <path d="M37.3959516,16.0787059 C36.1385645,14.659098 34.8666161,13.2520392 33.6151323,11.8273333 C33.2318161,11.3908627 32.9886032,11.2481176 32.6068613,11.8802745 C28.8256484,18.1426275 25.1156677,24.4508627 21.1876613,30.621451 C17.5410419,36.3496863 14.796829,42.5226275 11.7814613,48.5661569 C11.5095194,49.1112549 10.3273,51.5230196 10.0136419,52.188902 C9.19309355,53.9316471 8.3387,55.6587059 7.47840323,57.3822353 C6.54175806,59.259098 4.5689,60.0932157 2.71568065,59.4187059 C0.765648387,58.7096863 -0.294177419,56.8128235 0.333532258,54.7783137 C1.66057742,50.4747843 3.08994516,46.2022353 4.49019032,41.921451 C6.48862903,35.8100784 8.40363548,29.6696863 10.530371,23.6030196 C12.8172806,17.0787059 15.2513774,10.6034118 17.7330935,4.14968627 C18.8814677,1.16301961 22.3753903,-0.465215686 25.5107903,0.276352941 C27.7382742,0.803019608 30.0007839,1.22223529 32.1794677,1.90498039 C34.4888097,2.62929412 36.2778806,4.18341176 37.7300742,6.10458824 C39.0307516,7.82498039 40.3208032,9.55439216 41.615971,11.279098 C42.5738677,12.5543922 43.8399129,13.119098 45.4475581,13.0492941 C49.5739129,12.8692941 53.7014484,12.7218431 57.8293774,12.5802745 C59.5161258,12.5222353 60.8219194,13.648902 60.9329,15.2034118 C61.0493903,16.8379216 59.924629,18.1402745 58.1764871,18.2520392 C54.4798871,18.4881176 50.7793516,18.6559608 47.081571,18.8767451 C46.1032097,18.9351765 45.1303581,19.0838039 44.1791516,19.1885098 C41.4683903,19.0783137 39.1909258,18.1053725 37.3959516,16.0787059 Z" id="Fill-1" fill="#000000" mask="url(#mask-2)"></path>
                    </g>
                    <path d="M26.5085636,45 C28.6345805,46.3323177 30.6376782,47.6022192 32.6565451,48.8493888 C36.1783418,51.0262527 38.035473,54.1281873 37.9994868,58.1031793 C37.9861436,59.5657235 37.3634608,61.0197915 37.0577802,62.4850328 C36.8835098,63.3214879 36.8171982,64.1775926 36.6506103,65.0159742 C36.3566555,66.4958563 36.0259058,67.9691886 35.7064777,69.4444473 C35.3029469,71.3061475 34.9010335,73.1678477 34.4869898,75.0276215 C34.0575813,76.9586731 32.0524619,78.2698001 30.0339993,77.95271 C27.9415426,77.6236761 26.5000724,75.8698559 26.8069661,73.8698381 C26.9751713,72.7733152 27.4187317,71.7172473 27.6306056,70.6241919 C27.9528641,68.9609138 28.1493731,67.2756744 28.4590971,65.6100846 C28.7971249,63.7907659 29.1840778,61.9783822 29.5843739,60.1702367 C30.1310408,57.6978588 29.617934,56.586695 27.3111774,55.3179494 C25.7095888,54.4371864 24.1221521,53.5321505 22.5193504,52.6529286 C22.0786204,52.4113545 21.8198432,52.1666982 22.1481668,51.6669827 C23.6276449,49.4165293 25.0970145,47.1599113 26.5085636,45" id="Fill-4" fill="#000000"></path>
                    <path d="M10.5144608,14 C11.2622591,14.2859109 12.5740965,14.7660529 13.861141,15.315071 C13.9803658,15.3660313 14.0449003,15.8947449 13.9639587,16.1324271 C12.4151301,20.6925817 10.8400502,25.2419869 9.27116852,29.794179 C8.21455242,32.8597623 7.15757171,35.9253455 6.10350782,38.9921232 C5.6998936,40.1662018 5.68421572,40.1777475 4.61155713,39.71791 C3.87907205,39.4037872 3.11997104,39.1465967 2.41993553,38.7612091 C0.437595377,37.6699411 -0.499431328,35.2282239 0.266232516,32.9577017 C2.06700096,27.6176149 3.90641719,22.2930551 5.77500157,16.9808372 C6.46264062,15.0256321 7.98631167,13.9912964 10.5144608,14" id="Fill-6" fill="#000000"></path>
                    <g id="Group-10" transform="translate(51.000000, 36.000000)">
                        <mask id="mask-4" fill="white">
                            <use xlink:href="#path-3"></use>
                        </mask>
                        <g id="Clip-9"></g>
                        <path d="M0.0446666667,20.6121155 C0.0446666667,14.2911363 0.0573333333,7.96976188 0.0296666667,1.64878268 C0.0256666667,0.764983938 0.221,0.391464344 1.003,0.43336178 C1.72066667,0.472097146 2.45033333,0.424270827 3.163,0.310831543 C3.911,0.191068118 3.97566667,0.638501113 3.974,1.33810924 C3.95966667,6.30927954 3.98233333,11.2808451 3.96133333,16.2520154 C3.951,18.6492602 3.83066667,21.0461097 3.83466667,23.4433545 C3.83966667,26.3504832 3.94,29.2568214 3.96766667,32.1639501 C3.99066667,34.5892582 3.97066667,37.0153569 3.965,39.4410604 C3.96133333,41.2288161 3.42766667,41.899175 2.02333333,41.8975968 C0.564,41.8956177 0.0456666667,41.2390928 0.0453333333,39.377819 C0.0443333333,33.1224527 0.045,26.8674818 0.0446666667,20.6121155" id="Fill-8" fill="#000000" mask="url(#mask-4)"></path>
                    </g>
                    <path d="M42,6.99239688 C42.0038246,10.8472064 38.8552642,14.0045809 35.0119151,14 C31.1433009,13.9957913 28.021154,10.885422 28,7.0149441 C27.9794284,3.18612119 31.172394,-0.0190228133 34.9889469,0 C38.8636858,0.0195749623 41.9961685,3.14370185 42,6.99239688" id="Fill-11" fill="#000000"></path>
                    <path d="M51.0141024,21.5518832 C51.0141024,20.7184381 50.9880357,19.8832512 51.0198574,19.0515479 C51.0743605,17.6354749 51.7585268,16.9701123 53.0723564,17.001029 C54.3323599,17.0306394 54.9576223,17.6986147 54.9813193,19.1207839 C55.0077245,20.7145191 54.9752258,22.3099961 54.9995998,23.9041667 C55.0100942,24.5921726 54.8154402,24.8969853 54.2677009,24.8974208 C53.423072,24.8978562 52.5767505,24.9265957 51.7338142,24.9953963 C51.1735494,25.0406828 50.9761872,24.7537234 51.0022539,24.0517832 C51.03306,23.2205153 51.009363,22.3853284 51.009363,21.5518832 L51.0141024,21.5518832 Z" id="Fill-13" fill="#000000"></path>
                </g>
            </g>
        </g>
    </g>
</svg>