<?xml version="1.0" encoding="UTF-8"?>
<svg width="132px" height="132px" viewBox="0 0 132 132" version="1.1" xmlns="http://www.w3.org/2000/svg" xmlns:xlink="http://www.w3.org/1999/xlink">
    <!-- Generator: Sketch 61 (89581) - https://sketch.com -->
    <title>Group</title>
    <desc>Created with Sketch.</desc>
    <g id="Colors-&amp;-Symbols" stroke="none" stroke-width="1" fill="none" fill-rule="evenodd">
        <g id="Pictogramas" transform="translate(-1082.000000, -518.000000)" fill="#000000" fill-rule="nonzero">
            <g id="Group" transform="translate(1082.000000, 518.000000)">
                <g id="Bus">
                    <path d="M66,132 C102.450793,132 132,102.450793 132,66 C132,29.5492065 102.450793,0 66,0 C29.5492065,0 0,29.5492065 0,66 C0,102.450793 29.5492065,132 66,132 Z M66,127 C32.3106303,127 5,99.6893697 5,66 C5,32.3106303 32.3106303,5 66,5 C99.6893697,5 127,32.3106303 127,66 C127,99.6893697 99.6893697,127 66,127 Z" id="Oval"></path>
                </g>
                <g id="distance_Distance" transform="translate(34.000000, 20.000000)">
                    <path d="M31.8395264,0 C39.5731065,0 46.546117,2.15183936 52.5970208,6.83907858 C58.8976529,11.532545 63.1598837,18.3266322 64.5507531,25.8935836 C65.533436,31.146412 64.8334427,36.2952241 63.137305,41.3855268 C59.8822875,50.7680904 55.8440634,59.8799481 51.0624201,68.6313237 C46.5528477,77.0826566 41.7807778,85.3714638 37.0760149,93.7122792 C36.409634,94.8813334 35.6055883,95.9720753 34.6798839,96.9627918 C34.1668469,97.6214946 33.3608593,98.0062537 32.5074823,97.9999231 C31.6541053,97.9934348 30.85441,97.5966159 30.3520405,96.9302867 C29.2617048,95.6620596 28.290867,94.3022732 27.4511066,92.8671459 C20.047331,80.3591733 13.040667,67.675673 7.08399304,54.4655897 C4.59363215,48.9397182 2.24461608,43.3553375 0.83116801,37.4654086 C-1.37650326,28.2209507 0.891744356,19.9126404 6.70707355,12.4494634 C12.2127903,5.38934995 19.6906037,1.47573274 28.6962871,0.214533834 C29.7193542,0.0715112779 30.7828057,0.0520082021 31.8395264,0 Z M30.5882353,18.8461538 C25.7921793,19.3214197 21.3296804,25.2548767 19.535165,27.596341 C18.6023019,28.8129483 18.232005,30.0846056 19.0082042,31.369108 C19.6882685,32.48479 18.2595554,36.6114907 19.1176471,37.6923077 C21.834344,41.123764 27.3042773,41.3882265 30.7402047,44.6380175 C31.1283042,44.9940081 31.5413276,45.3518338 32.0041986,45.7665446 C32.189347,45.6252493 32.3139662,45.5353341 32.4136615,45.438079 C34.7458194,43.1498297 39.794316,43.7663027 42.0588235,41.4615385 C44.0336144,39.4939607 43.058306,34.5632523 44.4447479,32.46644 C45.1853415,31.3213979 45.5734411,30.1616758 45.220947,28.9579135 C44.6561522,27.1110674 45.0349937,23.6844614 42.0588235,22.6153846 C39.0826534,21.5463078 34.1457874,18.4801053 30.5882353,18.8461538 Z" id="Shape"></path>
                    <path d="M51.9762164,29.7273031 C52.4457613,36.5066986 45.5733324,45.9670369 33.208652,45.9978523 C28.1474726,46.0688225 23.2648838,44.3783424 19.6543335,41.3049922 C16.0437832,38.231642 14.0069574,34.0322211 14,29.647183 C14,20.8709473 22.3450921,13.2102304 31.7857889,13.0068485 C44.2429554,12.7233465 52.5026758,21.2900372 51.9762164,29.7273031 Z M32.968206,39.4 C34.2316128,39.3695174 35.1263057,39.2184897 35.6522847,38.9469171 C37.7820028,37.9502351 39.1987485,35.7856001 39.3196005,33.3436532 C39.450076,31.2578387 38.6452407,29.2275593 37.1430847,27.8531689 C35.6409286,26.4787785 33.6133359,25.9175418 31.6598663,26.3354166 C28.2899004,27.0254328 26.0736522,30.7581709 26.8071154,34.3038564 C27.4493913,37.442183 29.812332,39.3958433 32.968206,39.4 Z" id="Shape"></path>
                </g>
            </g>
        </g>
    </g>
</svg>